<svg version="1.1" id="Layer_1" xmlns="http://www.w3.org/2000/svg" xmlns:xlink="http://www.w3.org/1999/xlink" x="0px" y="0px"
	 width="100%" viewBox="0 0 500 500" enable-background="new 0 0 500 500" xml:space="preserve">
<path fill="#000000" opacity="1.000000" stroke="none" 
	d="
M326.000000,501.000000 
	C217.333359,501.000000 109.166718,501.000000 1.000058,501.000000 
	C1.000039,334.333405 1.000039,167.666794 1.000019,1.000148 
	C167.666565,1.000098 334.333130,1.000098 500.999756,1.000049 
	C500.999847,167.666519 500.999847,334.333038 500.999939,500.999786 
	C442.833344,501.000000 384.666656,501.000000 326.000000,501.000000 
M424.999939,158.999969 
	C424.999939,158.999969 424.993347,158.997177 424.408844,158.401230 
	C422.930786,158.267517 421.452789,158.016937 419.974701,158.016693 
	C307.699402,157.998505 195.424118,157.995560 83.148842,158.041855 
	C81.419731,158.042572 79.690872,158.670334 77.499565,158.999176 
	C77.499565,158.999176 77.037521,158.981705 76.386795,159.526749 
	C76.262115,160.173950 76.028824,160.821091 76.028366,161.468384 
	C76.007629,191.108368 75.995216,220.748398 76.047310,250.388306 
	C76.049454,251.605820 76.679634,252.822235 76.999878,254.000122 
	C76.999878,254.000122 76.960838,253.982788 77.516541,254.624084 
	C78.831131,254.749176 80.145706,254.983612 81.460312,254.983810 
	C194.400986,255.000656 307.341675,255.003174 420.282349,254.960266 
	C421.843811,254.959671 423.405121,254.371078 424.997803,253.529526 
	C424.998535,253.353439 424.999268,253.177338 425.586426,252.406357 
	C425.723633,251.597427 425.980194,250.788589 425.980804,249.979568 
	C426.001923,220.880630 426.011292,191.781647 425.957458,162.682785 
	C425.955200,161.453918 425.334961,160.226212 424.999939,158.999969 
M134.202057,291.891235 
	C136.082428,286.135620 137.962799,280.379974 139.843170,274.624359 
	C139.044266,274.255035 138.245377,273.885712 137.446487,273.516388 
	C133.420853,279.651337 132.992920,287.603546 129.335098,294.716705 
	C127.095078,288.719788 125.179283,283.263794 122.981674,277.923767 
	C122.387703,276.480469 120.940025,275.388489 119.884201,274.135254 
	C118.950043,275.345520 117.686134,276.423889 117.139816,277.789337 
	C114.980904,283.185333 113.046982,288.671356 110.571045,295.363403 
	C108.301674,288.239349 106.605568,282.517120 104.593002,276.908478 
	C104.152496,275.680878 102.583931,274.858032 101.534882,273.848785 
	C101.150703,274.207428 100.766525,274.566071 100.382347,274.924683 
	C102.850166,282.483063 105.247490,290.065857 107.852661,297.576599 
	C108.306267,298.884369 109.636482,299.888092 110.561829,301.032227 
	C111.490326,299.851013 112.743301,298.802521 113.290367,297.465240 
	C115.499313,292.065582 117.490608,286.576904 120.061806,279.805511 
	C122.688469,286.719391 124.692856,292.270508 126.944756,297.719269 
	C127.473846,298.999512 128.838867,299.934265 129.819305,301.027985 
	C130.634262,299.967834 131.651428,299.004303 132.215210,297.824188 
	C132.996124,296.189484 133.436096,294.391968 134.202057,291.891235 
M312.315674,289.953247 
	C314.775726,298.674805 320.232513,302.512817 328.338135,301.222748 
	C335.285461,300.117035 339.415222,294.505249 338.878296,286.380310 
	C335.808624,286.380310 332.686035,286.379913 329.563477,286.380585 
	C328.730438,286.380768 327.781677,286.133423 327.093964,286.450592 
	C326.257507,286.836395 325.640961,287.698975 324.929291,288.355316 
	C325.628632,288.848633 326.304230,289.722046 327.031586,289.767548 
	C329.743927,289.937225 332.473236,289.835297 335.383575,289.835297 
	C333.505798,296.008667 330.747772,298.145569 325.566437,297.996002 
	C320.857208,297.860107 317.682587,295.496429 316.251770,291.077179 
	C314.683167,286.232391 316.520538,281.094696 320.389069,278.738556 
	C324.417297,276.285156 329.306885,276.816833 332.871399,279.952576 
	C334.240906,281.157379 335.826752,282.116241 337.314056,283.187164 
	C337.625366,282.826935 337.936707,282.466675 338.248047,282.106415 
	C337.948914,281.378693 337.766022,280.571655 337.332245,279.935760 
	C333.739227,274.668640 327.554504,272.499084 321.552826,274.344421 
	C315.435242,276.225403 312.269928,281.235443 312.315674,289.953247 
M365.321594,299.549286 
	C366.628540,300.135529 367.935455,300.721741 369.827362,301.570343 
	C369.827362,293.130249 369.906158,285.660706 369.755951,278.195740 
	C369.728394,276.824554 368.771423,275.472076 368.243439,274.110992 
	C367.553192,275.476013 366.335693,276.815308 366.267578,278.210693 
	C366.024750,283.185425 366.172638,288.179291 366.172638,293.165894 
	C361.159576,287.649841 357.301300,282.045807 353.228180,276.602631 
	C352.279327,275.334656 350.599762,274.613464 348.210083,272.882965 
	C348.210083,282.569458 348.128296,290.532867 348.313873,298.490051 
	C348.336975,299.481354 349.776733,300.439575 350.560028,301.413147 
	C351.077789,301.123260 351.595520,300.833344 352.113281,300.543427 
	C352.113281,294.383636 352.113281,288.223816 352.113281,280.831543 
	C356.893860,287.583801 360.899231,293.241150 365.321594,299.549286 
M189.089996,299.936584 
	C194.346497,295.836975 194.515015,292.419922 190.851593,288.441528 
	C191.097244,284.189026 192.467880,280.361542 191.127090,278.283905 
	C189.678482,276.039185 185.808701,274.928070 182.786880,274.249939 
	C179.849686,273.590820 176.648788,274.106842 173.459351,274.106842 
	C173.459351,283.396942 173.459351,291.969604 173.459351,301.352112 
	C178.575775,300.965912 183.449265,300.598053 189.089996,299.936584 
M224.986435,274.217896 
	C221.556839,274.217896 218.127258,274.217896 214.540726,274.217896 
	C214.540726,283.375092 214.540726,292.072174 214.540726,300.739349 
	C228.928757,302.026642 235.616257,298.985138 237.070526,290.656799 
	C238.547531,282.198395 234.720718,276.632874 224.986435,274.217896 
M272.488098,297.907074 
	C276.080994,301.893555 280.828888,302.396393 285.299011,300.749023 
	C287.617554,299.894531 290.220459,296.916992 290.592468,294.565857 
	C290.905670,292.586334 288.595428,289.628326 286.676849,288.023865 
	C284.901520,286.539215 282.089264,286.318604 279.762787,285.462280 
	C277.305817,284.557983 274.026917,283.936829 274.989197,280.328003 
	C275.992340,276.566071 279.503204,276.623108 282.395172,277.356323 
	C284.060822,277.778595 285.295441,279.737671 286.849457,280.825928 
	C287.748993,281.455872 288.897491,281.730255 289.933990,282.164642 
	C290.361603,281.519226 290.789246,280.873810 291.216858,280.228394 
	C288.926819,278.216248 286.832520,274.884430 284.299713,274.508698 
	C280.718079,273.977356 276.293488,274.746735 273.180511,276.577576 
	C269.519562,278.730682 270.337982,284.243347 274.218506,286.588562 
	C276.435852,287.928619 279.141266,288.445190 281.593903,289.415985 
	C284.274933,290.477264 288.147919,290.940002 286.941223,295.113922 
	C285.861511,298.848541 282.195343,298.435760 279.341064,297.827240 
	C277.635590,297.463623 276.220490,295.739471 274.673859,294.628296 
	C273.681030,293.915009 272.686310,293.204315 271.692444,292.492462 
	C271.363373,292.765259 271.034302,293.038025 270.705231,293.310822 
	C271.157013,294.641907 271.608765,295.973022 272.488098,297.907074 
M383.426788,300.201477 
	C386.671143,300.472656 390.176422,301.612305 393.077423,300.740723 
	C395.405579,300.041168 398.287476,297.054413 398.552246,294.803680 
	C398.806305,292.644165 396.427917,289.641785 394.426727,287.911377 
	C392.687897,286.407776 389.856232,286.173126 387.513062,285.361816 
	C384.960419,284.478027 381.614075,283.448029 383.200714,280.161530 
	C384.008484,278.488373 387.444733,277.382019 389.712006,277.349243 
	C391.371460,277.325226 393.038696,279.504395 394.748322,280.631989 
	C395.703156,281.261749 396.751617,281.749512 398.309113,282.603455 
	C397.137665,275.531464 393.544769,273.147003 386.624329,273.928070 
	C382.811859,274.358368 379.864777,276.064514 379.165588,280.067291 
	C378.429840,284.279541 381.130249,286.531311 384.610321,287.918365 
	C387.217865,288.957703 390.082001,289.427460 392.559509,290.686768 
	C393.758759,291.296326 395.230927,293.371216 394.972443,294.364441 
	C394.609131,295.760559 392.910980,297.483368 391.499786,297.799652 
	C387.998016,298.584442 384.576141,298.249969 382.471313,294.447266 
	C381.976349,293.553009 380.502014,293.200836 379.478241,292.599243 
	C379.065796,293.044281 378.653351,293.489288 378.240906,293.934326 
	C379.738556,295.919830 381.236206,297.905365 383.426788,300.201477 
M147.245300,289.479858 
	C147.245300,293.250641 147.245300,297.021454 147.245300,301.046387 
	C152.342438,301.046387 156.827225,301.143097 161.301376,300.967773 
	C162.237137,300.931091 163.133606,299.891144 164.048172,299.313538 
	C163.030319,298.835022 162.031967,298.001007 160.990982,297.943939 
	C157.723511,297.764771 154.440002,297.877991 151.250336,297.877991 
	C151.250336,294.593445 151.250336,291.874084 151.250336,288.690063 
	C155.298920,288.690063 159.004562,288.690063 164.081573,288.690063 
	C159.718216,283.753174 154.820023,287.281952 151.178436,285.320679 
	C151.178436,282.818878 151.178436,280.213043 151.178436,277.391449 
	C154.772705,277.391449 158.103882,277.506653 161.416351,277.308594 
	C162.221695,277.260437 162.965393,276.181610 163.737427,275.576691 
	C163.017303,275.088074 162.308517,274.197052 161.575241,274.176422 
	C156.966644,274.046814 152.352615,274.110840 147.245300,274.110840 
	C147.245300,279.247528 147.245300,283.869476 147.245300,289.479858 
M262.993011,300.442139 
	C262.036316,299.587463 261.141937,298.096680 260.111450,297.995789 
	C256.853973,297.676819 253.545517,297.878052 250.203079,297.878052 
	C250.203079,294.675659 250.203079,291.958679 250.203079,288.789185 
	C254.219666,288.789185 257.947021,288.789185 263.074249,288.789185 
	C258.709991,283.907776 253.903137,287.113770 250.147858,285.428802 
	C250.147858,282.926147 250.147858,280.314301 250.147858,277.392242 
	C253.692978,277.392242 257.006836,277.504639 260.303223,277.314331 
	C261.143250,277.265839 261.927795,276.257019 262.737854,275.689423 
	C261.888397,275.162140 261.053741,274.209137 260.187042,274.179108 
	C255.734879,274.024719 251.274490,274.107605 246.535950,274.107605 
	C246.535950,283.274506 246.535950,291.991119 246.535950,300.998291 
	C251.940063,300.998291 257.076752,300.998291 262.993011,300.442139 
M299.928284,283.553802 
	C299.928589,288.514893 299.862305,293.477692 299.992249,298.435394 
	C300.014862,299.297913 300.865479,300.138763 301.333618,300.989624 
	C301.953247,300.119904 303.093048,299.260468 303.110474,298.378815 
	C303.254181,291.105438 303.241913,283.827026 303.114777,276.552979 
	C303.100739,275.749664 302.069397,274.964111 301.509857,274.170319 
	C300.983612,274.987488 300.104156,275.763336 300.002747,276.630188 
	C299.773773,278.587952 299.929199,280.590637 299.928284,283.553802 
z"/>
<path fill="#030303" opacity="1.000000" stroke="none" 
	d="
M77.037521,158.981705 
	C77.037521,158.981705 77.499565,158.999176 78.203766,158.998230 
	C194.269760,158.997253 309.631561,158.997223 424.993347,158.997177 
	C424.993347,158.997177 424.999939,158.999969 425.000793,159.467834 
	C425.001099,190.957535 425.000549,221.979385 425.000000,253.001221 
	C424.999268,253.177338 424.998535,253.353439 424.517212,253.776428 
	C308.344696,254.009811 192.652771,253.996307 76.960838,253.982788 
	C76.960838,253.982788 76.999878,254.000122 76.997444,253.547699 
	C77.009178,221.724075 77.023354,190.352890 77.037521,158.981705 
M95.506294,161.400955 
	C90.216385,161.400955 84.926483,161.400955 79.621506,161.400955 
	C79.621506,191.919891 79.621506,221.783844 79.621506,251.576691 
	C193.936676,251.576691 307.851685,251.576691 421.958099,251.576691 
	C421.958099,221.539764 421.958099,191.764801 421.958099,162.054642 
	C421.521820,161.842606 421.224731,161.571747 420.927460,161.571548 
	C312.786255,161.502457 204.645065,161.451889 95.506294,161.400955 
z"/>
<path fill="#EBEBEB" opacity="1.000000" stroke="none" 
	d="
M134.112061,292.277710 
	C133.436096,294.391968 132.996124,296.189484 132.215210,297.824188 
	C131.651428,299.004303 130.634262,299.967834 129.819305,301.027985 
	C128.838867,299.934265 127.473846,298.999512 126.944756,297.719269 
	C124.692856,292.270508 122.688469,286.719391 120.061806,279.805511 
	C117.490608,286.576904 115.499313,292.065582 113.290367,297.465240 
	C112.743301,298.802521 111.490326,299.851013 110.561829,301.032227 
	C109.636482,299.888092 108.306267,298.884369 107.852661,297.576599 
	C105.247490,290.065857 102.850166,282.483063 100.382347,274.924683 
	C100.766525,274.566071 101.150703,274.207428 101.534882,273.848785 
	C102.583931,274.858032 104.152496,275.680878 104.593002,276.908478 
	C106.605568,282.517120 108.301674,288.239349 110.571045,295.363403 
	C113.046982,288.671356 114.980904,283.185333 117.139816,277.789337 
	C117.686134,276.423889 118.950043,275.345520 119.884201,274.135254 
	C120.940025,275.388489 122.387703,276.480469 122.981674,277.923767 
	C125.179283,283.263794 127.095078,288.719788 129.335098,294.716705 
	C132.992920,287.603546 133.420853,279.651337 137.446487,273.516388 
	C138.245377,273.885712 139.044266,274.255035 139.843170,274.624359 
	C137.962799,280.379974 136.082428,286.135620 134.112061,292.277710 
z"/>
<path fill="#383838" opacity="1.000000" stroke="none" 
	d="
M77.238693,254.303436 
	C192.652771,253.996307 308.344696,254.009811 424.501556,254.040131 
	C423.405121,254.371078 421.843811,254.959671 420.282349,254.960266 
	C307.341675,255.003174 194.400986,255.000656 81.460312,254.983810 
	C80.145706,254.983612 78.831131,254.749176 77.238693,254.303436 
z"/>
<path fill="#191919" opacity="1.000000" stroke="none" 
	d="
M424.701111,158.699203 
	C309.631561,158.997223 194.269760,158.997253 78.434929,159.001373 
	C79.690872,158.670334 81.419731,158.042572 83.148842,158.041855 
	C195.424118,157.995560 307.699402,157.998505 419.974701,158.016693 
	C421.452789,158.016937 422.930786,158.267517 424.701111,158.699203 
z"/>
<path fill="#E7E7E7" opacity="1.000000" stroke="none" 
	d="
M312.260437,289.546570 
	C312.269928,281.235443 315.435242,276.225403 321.552826,274.344421 
	C327.554504,272.499084 333.739227,274.668640 337.332245,279.935760 
	C337.766022,280.571655 337.948914,281.378693 338.248047,282.106415 
	C337.936707,282.466675 337.625366,282.826935 337.314056,283.187164 
	C335.826752,282.116241 334.240906,281.157379 332.871399,279.952576 
	C329.306885,276.816833 324.417297,276.285156 320.389069,278.738556 
	C316.520538,281.094696 314.683167,286.232391 316.251770,291.077179 
	C317.682587,295.496429 320.857208,297.860107 325.566437,297.996002 
	C330.747772,298.145569 333.505798,296.008667 335.383575,289.835297 
	C332.473236,289.835297 329.743927,289.937225 327.031586,289.767548 
	C326.304230,289.722046 325.628632,288.848633 324.929291,288.355316 
	C325.640961,287.698975 326.257507,286.836395 327.093964,286.450592 
	C327.781677,286.133423 328.730438,286.380768 329.563477,286.380585 
	C332.686035,286.379913 335.808624,286.380310 338.878296,286.380310 
	C339.415222,294.505249 335.285461,300.117035 328.338135,301.222748 
	C320.232513,302.512817 314.775726,298.674805 312.260437,289.546570 
z"/>
<path fill="#DBDBDB" opacity="1.000000" stroke="none" 
	d="
M365.113098,299.223877 
	C360.899231,293.241150 356.893860,287.583801 352.113281,280.831543 
	C352.113281,288.223816 352.113281,294.383636 352.113281,300.543427 
	C351.595520,300.833344 351.077789,301.123260 350.560028,301.413147 
	C349.776733,300.439575 348.336975,299.481354 348.313873,298.490051 
	C348.128296,290.532867 348.210083,282.569458 348.210083,272.882965 
	C350.599762,274.613464 352.279327,275.334656 353.228180,276.602631 
	C357.301300,282.045807 361.159576,287.649841 366.172638,293.165894 
	C366.172638,288.179291 366.024750,283.185425 366.267578,278.210693 
	C366.335693,276.815308 367.553192,275.476013 368.243439,274.110992 
	C368.771423,275.472076 369.728394,276.824554 369.755951,278.195740 
	C369.906158,285.660706 369.827362,293.130249 369.827362,301.570343 
	C367.935455,300.721741 366.628540,300.135529 365.113098,299.223877 
z"/>
<path fill="#E7E7E7" opacity="1.000000" stroke="none" 
	d="
M188.706375,300.083374 
	C183.449265,300.598053 178.575775,300.965912 173.459351,301.352112 
	C173.459351,291.969604 173.459351,283.396942 173.459351,274.106842 
	C176.648788,274.106842 179.849686,273.590820 182.786880,274.249939 
	C185.808701,274.928070 189.678482,276.039185 191.127090,278.283905 
	C192.467880,280.361542 191.097244,284.189026 190.851593,288.441528 
	C194.515015,292.419922 194.346497,295.836975 188.706375,300.083374 
M178.634872,297.885468 
	C180.952744,297.820648 183.485352,298.307129 185.519836,297.514709 
	C187.117126,296.892578 189.123779,294.647186 189.063828,293.201080 
	C189.004562,291.771545 186.782288,289.668396 185.148926,289.243103 
	C182.581482,288.574615 179.712173,289.065552 176.443909,289.065552 
	C176.931656,292.429077 177.322662,295.125458 178.634872,297.885468 
M179.542343,285.882721 
	C181.192642,285.846832 183.089523,286.310669 184.430908,285.648773 
	C186.112106,284.819153 187.337479,283.065826 188.759598,281.711182 
	C187.389389,280.330383 186.236679,278.250580 184.595703,277.739990 
	C182.381119,277.050873 179.790970,277.568817 176.080200,277.568817 
	C177.037903,280.676178 177.839218,283.276184 179.542343,285.882721 
z"/>
<path fill="#E5E5E5" opacity="1.000000" stroke="none" 
	d="
M225.414856,274.273163 
	C234.720718,276.632874 238.547531,282.198395 237.070526,290.656799 
	C235.616257,298.985138 228.928757,302.026642 214.540726,300.739349 
	C214.540726,292.072174 214.540726,283.375092 214.540726,274.217896 
	C218.127258,274.217896 221.556839,274.217896 225.414856,274.273163 
M233.866974,288.297180 
	C233.067749,279.392029 228.509949,276.394135 218.216812,278.043274 
	C218.216812,284.561066 218.216812,291.082367 218.216812,297.574982 
	C228.525421,298.272461 231.480438,296.625763 233.866974,288.297180 
z"/>
<path fill="#EEEEEE" opacity="1.000000" stroke="none" 
	d="
M272.274292,297.605591 
	C271.608765,295.973022 271.157013,294.641907 270.705231,293.310822 
	C271.034302,293.038025 271.363373,292.765259 271.692444,292.492462 
	C272.686310,293.204315 273.681030,293.915009 274.673859,294.628296 
	C276.220490,295.739471 277.635590,297.463623 279.341064,297.827240 
	C282.195343,298.435760 285.861511,298.848541 286.941223,295.113922 
	C288.147919,290.940002 284.274933,290.477264 281.593903,289.415985 
	C279.141266,288.445190 276.435852,287.928619 274.218506,286.588562 
	C270.337982,284.243347 269.519562,278.730682 273.180511,276.577576 
	C276.293488,274.746735 280.718079,273.977356 284.299713,274.508698 
	C286.832520,274.884430 288.926819,278.216248 291.216858,280.228394 
	C290.789246,280.873810 290.361603,281.519226 289.933990,282.164642 
	C288.897491,281.730255 287.748993,281.455872 286.849457,280.825928 
	C285.295441,279.737671 284.060822,277.778595 282.395172,277.356323 
	C279.503204,276.623108 275.992340,276.566071 274.989197,280.328003 
	C274.026917,283.936829 277.305817,284.557983 279.762787,285.462280 
	C282.089264,286.318604 284.901520,286.539215 286.676849,288.023865 
	C288.595428,289.628326 290.905670,292.586334 290.592468,294.565857 
	C290.220459,296.916992 287.617554,299.894531 285.299011,300.749023 
	C280.828888,302.396393 276.080994,301.893555 272.274292,297.605591 
z"/>
<path fill="#EEEEEE" opacity="1.000000" stroke="none" 
	d="
M383.080322,300.046204 
	C381.236206,297.905365 379.738556,295.919830 378.240906,293.934326 
	C378.653351,293.489288 379.065796,293.044281 379.478241,292.599243 
	C380.502014,293.200836 381.976349,293.553009 382.471313,294.447266 
	C384.576141,298.249969 387.998016,298.584442 391.499786,297.799652 
	C392.910980,297.483368 394.609131,295.760559 394.972443,294.364441 
	C395.230927,293.371216 393.758759,291.296326 392.559509,290.686768 
	C390.082001,289.427460 387.217865,288.957703 384.610321,287.918365 
	C381.130249,286.531311 378.429840,284.279541 379.165588,280.067291 
	C379.864777,276.064514 382.811859,274.358368 386.624329,273.928070 
	C393.544769,273.147003 397.137665,275.531464 398.309113,282.603455 
	C396.751617,281.749512 395.703156,281.261749 394.748322,280.631989 
	C393.038696,279.504395 391.371460,277.325226 389.712006,277.349243 
	C387.444733,277.382019 384.008484,278.488373 383.200714,280.161530 
	C381.614075,283.448029 384.960419,284.478027 387.513062,285.361816 
	C389.856232,286.173126 392.687897,286.407776 394.426727,287.911377 
	C396.427917,289.641785 398.806305,292.644165 398.552246,294.803680 
	C398.287476,297.054413 395.405579,300.041168 393.077423,300.740723 
	C390.176422,301.612305 386.671143,300.472656 383.080322,300.046204 
z"/>
<path fill="#E7E7E7" opacity="1.000000" stroke="none" 
	d="
M147.245300,288.985657 
	C147.245300,283.869476 147.245300,279.247528 147.245300,274.110840 
	C152.352615,274.110840 156.966644,274.046814 161.575241,274.176422 
	C162.308517,274.197052 163.017303,275.088074 163.737427,275.576691 
	C162.965393,276.181610 162.221695,277.260437 161.416351,277.308594 
	C158.103882,277.506653 154.772705,277.391449 151.178436,277.391449 
	C151.178436,280.213043 151.178436,282.818878 151.178436,285.320679 
	C154.820023,287.281952 159.718216,283.753174 164.081573,288.690063 
	C159.004562,288.690063 155.298920,288.690063 151.250336,288.690063 
	C151.250336,291.874084 151.250336,294.593445 151.250336,297.877991 
	C154.440002,297.877991 157.723511,297.764771 160.990982,297.943939 
	C162.031967,298.001007 163.030319,298.835022 164.048172,299.313538 
	C163.133606,299.891144 162.237137,300.931091 161.301376,300.967773 
	C156.827225,301.143097 152.342438,301.046387 147.245300,301.046387 
	C147.245300,297.021454 147.245300,293.250641 147.245300,288.985657 
z"/>
<path fill="#E7E7E7" opacity="1.000000" stroke="none" 
	d="
M262.603210,300.720215 
	C257.076752,300.998291 251.940063,300.998291 246.535950,300.998291 
	C246.535950,291.991119 246.535950,283.274506 246.535950,274.107605 
	C251.274490,274.107605 255.734879,274.024719 260.187042,274.179108 
	C261.053741,274.209137 261.888397,275.162140 262.737854,275.689423 
	C261.927795,276.257019 261.143250,277.265839 260.303223,277.314331 
	C257.006836,277.504639 253.692978,277.392242 250.147858,277.392242 
	C250.147858,280.314301 250.147858,282.926147 250.147858,285.428802 
	C253.903137,287.113770 258.709991,283.907776 263.074249,288.789185 
	C257.947021,288.789185 254.219666,288.789185 250.203079,288.789185 
	C250.203079,291.958679 250.203079,294.675659 250.203079,297.878052 
	C253.545517,297.878052 256.853973,297.676819 260.111450,297.995789 
	C261.141937,298.096680 262.036316,299.587463 262.603210,300.720215 
z"/>
<path fill="#383838" opacity="1.000000" stroke="none" 
	d="
M76.712158,159.254227 
	C77.023354,190.352890 77.009178,221.724075 77.006111,253.567200 
	C76.679634,252.822235 76.049454,251.605820 76.047310,250.388306 
	C75.995216,220.748398 76.007629,191.108368 76.028366,161.468384 
	C76.028824,160.821091 76.262115,160.173950 76.712158,159.254227 
z"/>
<path fill="#090909" opacity="1.000000" stroke="none" 
	d="
M425.293213,252.703796 
	C425.000549,221.979385 425.001099,190.957535 425.002136,159.466827 
	C425.334961,160.226212 425.955200,161.453918 425.957458,162.682785 
	C426.011292,191.781647 426.001923,220.880630 425.980804,249.979568 
	C425.980194,250.788589 425.723633,251.597427 425.293213,252.703796 
z"/>
<path fill="#F9F9F9" opacity="1.000000" stroke="none" 
	d="
M299.928284,283.064453 
	C299.929199,280.590637 299.773773,278.587952 300.002747,276.630188 
	C300.104156,275.763336 300.983612,274.987488 301.509857,274.170319 
	C302.069397,274.964111 303.100739,275.749664 303.114777,276.552979 
	C303.241913,283.827026 303.254181,291.105438 303.110474,298.378815 
	C303.093048,299.260468 301.953247,300.119904 301.333618,300.989624 
	C300.865479,300.138763 300.014862,299.297913 299.992249,298.435394 
	C299.862305,293.477692 299.928589,288.514893 299.928284,283.064453 
z"/>
<path fill="#F9F9F9" opacity="1.000000" stroke="none" 
	d="
M96.005081,161.400970 
	C204.645065,161.451889 312.786255,161.502457 420.927460,161.571548 
	C421.224731,161.571747 421.521820,161.842606 421.958099,162.054642 
	C421.958099,191.764801 421.958099,221.539764 421.958099,251.576691 
	C307.851685,251.576691 193.936676,251.576691 79.621506,251.576691 
	C79.621506,221.783844 79.621506,191.919891 79.621506,161.400955 
	C84.926483,161.400955 90.216385,161.400955 96.005081,161.400970 
M233.499176,245.080139 
	C239.110184,245.080139 244.721191,245.080139 250.150421,245.080139 
	C250.150421,219.048386 250.150421,193.639847 250.150421,168.276367 
	C195.288055,168.276367 140.730713,168.276367 86.289383,168.276367 
	C86.289383,194.022476 86.289383,219.441696 86.289383,245.080139 
	C135.215210,245.080139 183.857224,245.080139 233.499176,245.080139 
M368.174072,198.632248 
	C368.174072,205.364029 368.174072,212.095810 368.174072,218.915497 
	C372.976410,218.915497 377.134857,219.179276 381.247498,218.857666 
	C388.601807,218.282486 393.218781,213.297012 393.375671,206.243088 
	C393.530548,199.282043 389.259338,193.847885 382.412720,193.133896 
	C377.864655,192.659607 373.227051,193.043930 368.174072,193.043930 
	C368.174072,194.766602 368.174072,196.215317 368.174072,198.632248 
M284.167725,194.802811 
	C284.167725,202.752884 284.167725,210.702942 284.167725,218.653961 
	C287.033875,218.653961 289.408020,218.653961 292.088470,218.653961 
	C292.088470,215.354401 292.088470,212.414795 292.088470,209.373230 
	C294.810913,209.373230 297.206543,209.373230 300.060211,209.373230 
	C300.060211,212.700623 300.060211,215.781723 300.060211,218.702118 
	C302.771027,218.702118 305.008881,218.702118 307.230835,218.702118 
	C307.230835,209.971329 307.230835,201.556259 307.230835,193.122498 
	C304.681458,193.122498 302.440643,193.122498 299.868683,193.122498 
	C299.868683,196.163834 299.868683,198.931335 299.868683,201.887390 
	C297.121277,201.887390 294.718719,201.887390 291.797638,201.887390 
	C291.797638,198.801743 291.797638,195.900375 291.797638,192.345078 
	C288.877228,192.928467 286.549957,193.393372 284.167725,194.802811 
M341.171539,197.662964 
	C341.171539,204.723587 341.171539,211.784210 341.171539,218.736389 
	C344.112427,218.736389 346.369171,218.736389 348.737335,218.736389 
	C348.885193,216.256393 349.017517,214.037109 349.219482,210.649811 
	C350.901611,212.009369 352.365082,212.583878 352.590668,213.472580 
	C354.130127,219.538010 358.435455,219.643799 363.731934,218.697586 
	C362.255035,215.867996 360.832733,213.142975 359.300262,210.206863 
	C363.627289,207.090088 364.425964,202.760513 362.668427,198.215805 
	C360.828674,193.458527 356.476624,192.722427 351.911011,192.843506 
	C349.589935,192.905060 347.244720,193.051270 344.948425,192.804855 
	C341.821533,192.469330 340.647430,193.673157 341.171539,197.662964 
M333.579651,219.001328 
	C334.995178,218.933487 336.410675,218.865646 338.201385,218.779831 
	C335.045166,210.665390 332.139587,202.910217 328.937744,195.279388 
	C328.471741,194.168793 326.621643,193.071976 325.354919,193.001968 
	C323.610046,192.905502 320.667542,193.297195 320.216644,194.337402 
	C316.766144,202.297577 313.796173,210.466064 310.286530,219.583740 
	C313.877380,218.917908 317.068176,219.267395 318.703369,217.837677 
	C322.785706,214.268280 326.468658,214.076721 330.092590,218.207947 
	C330.604401,218.791382 331.826019,218.752151 333.579651,219.001328 
z"/>
<path fill="#070707" opacity="1.000000" stroke="none" 
	d="
M178.174271,297.853638 
	C177.322662,295.125458 176.931656,292.429077 176.443909,289.065552 
	C179.712173,289.065552 182.581482,288.574615 185.148926,289.243103 
	C186.782288,289.668396 189.004562,291.771545 189.063828,293.201080 
	C189.123779,294.647186 187.117126,296.892578 185.519836,297.514709 
	C183.485352,298.307129 180.952744,297.820648 178.174271,297.853638 
z"/>
<path fill="#121212" opacity="1.000000" stroke="none" 
	d="
M179.091431,285.879456 
	C177.839218,283.276184 177.037903,280.676178 176.080200,277.568817 
	C179.790970,277.568817 182.381119,277.050873 184.595703,277.739990 
	C186.236679,278.250580 187.389389,280.330383 188.759598,281.711182 
	C187.337479,283.065826 186.112106,284.819153 184.430908,285.648773 
	C183.089523,286.310669 181.192642,285.846832 179.091431,285.879456 
z"/>
<path fill="#070707" opacity="1.000000" stroke="none" 
	d="
M233.837814,288.692047 
	C231.480438,296.625763 228.525421,298.272461 218.216812,297.574982 
	C218.216812,291.082367 218.216812,284.561066 218.216812,278.043274 
	C228.509949,276.394135 233.067749,279.392029 233.837814,288.692047 
z"/>
<path fill="#020202" opacity="1.000000" stroke="none" 
	d="
M232.999207,245.080139 
	C183.857224,245.080139 135.215210,245.080139 86.289383,245.080139 
	C86.289383,219.441696 86.289383,194.022476 86.289383,168.276367 
	C140.730713,168.276367 195.288055,168.276367 250.150421,168.276367 
	C250.150421,193.639847 250.150421,219.048386 250.150421,245.080139 
	C244.721191,245.080139 239.110184,245.080139 232.999207,245.080139 
M109.289490,201.080322 
	C107.522835,198.436676 109.244408,193.278595 103.180962,192.802185 
	C105.844963,200.970459 108.237488,208.513748 110.815361,215.993164 
	C111.215096,217.152939 112.462982,218.020386 113.318665,219.023026 
	C114.199455,218.013779 115.432991,217.145187 115.901047,215.971344 
	C118.135666,210.367157 120.162506,204.680099 122.624825,198.048706 
	C125.218620,204.908768 127.369972,210.803070 129.720795,216.616699 
	C130.116837,217.596130 131.273560,218.489822 132.287521,218.878036 
	C132.645859,219.015228 133.969803,217.642242 134.270294,216.760254 
	C136.920975,208.980331 139.440277,201.155670 142.105789,193.016479 
	C140.831039,193.016479 139.453369,192.782425 139.347336,193.050797 
	C136.842407,199.390762 134.474457,205.784836 131.778076,212.978317 
	C129.484512,206.850403 127.579086,201.462631 125.412102,196.182190 
	C124.882179,194.890900 123.495644,193.951157 122.502953,192.849777 
	C121.639427,193.891388 120.448715,194.801559 119.968407,195.997116 
	C117.757195,201.501099 115.744118,207.084686 113.369530,213.413895 
	C111.958618,209.037216 110.792664,205.420410 109.289490,201.080322 
M148.107040,203.067322 
	C148.073624,204.562775 147.903061,206.069977 148.030197,207.551651 
	C148.623947,214.471405 153.908585,219.247086 161.072937,219.433655 
	C168.432236,219.625305 174.119171,214.895432 174.962265,207.881775 
	C175.853729,200.465729 171.882355,194.447266 165.004898,192.791672 
	C157.216293,190.916779 151.397141,194.213516 148.107040,203.067322 
M197.791168,216.850800 
	C199.240814,217.760544 200.690445,218.670288 202.140091,219.580017 
	C202.388290,219.248260 202.636490,218.916504 202.884705,218.584747 
	C200.921875,215.563522 198.959061,212.542297 196.938461,209.432159 
	C201.532013,207.279572 203.797699,203.880844 202.550293,198.960297 
	C201.248123,193.823776 197.218460,192.692352 192.510468,192.822952 
	C189.740829,192.899780 186.967316,192.836990 183.850937,192.836990 
	C183.850937,201.070969 183.804626,208.834183 183.919464,216.595032 
	C183.931503,217.409882 184.894043,218.210678 185.415619,219.017990 
	C185.974304,218.249512 186.933395,217.520966 187.014832,216.704849 
	C187.237869,214.469406 187.091690,212.197128 187.091690,210.264267 
	C193.614151,207.879959 194.855377,213.021393 197.791168,216.850800 
M228.106384,201.453751 
	C229.143295,198.750275 230.180222,196.046799 231.217133,193.343323 
	C230.655930,193.011230 230.094727,192.679153 229.533524,192.347061 
	C228.399841,194.040253 226.939316,195.601257 226.191483,197.450485 
	C223.560989,203.955154 222.309143,204.747055 215.835541,203.514465 
	C213.716187,200.200500 217.793762,195.252197 212.015533,192.089569 
	C212.015533,200.920883 211.948929,208.726288 212.107681,216.527100 
	C212.125656,217.409912 213.412918,218.266891 214.111603,219.135849 
	C214.587311,218.847351 215.063019,218.558838 215.538727,218.270340 
	C215.538727,214.679459 215.538727,211.088577 215.538727,207.652634 
	C220.046555,206.141632 222.892975,207.218597 224.427689,211.527222 
	C225.086670,213.377289 226.108688,215.202133 227.367371,216.701233 
	C228.356171,217.878876 229.961929,218.538544 231.293625,219.428299 
	C231.546951,219.083466 231.800278,218.738632 232.053604,218.393799 
	C229.721817,214.220840 227.390015,210.047867 225.135986,206.014038 
	C226.144699,204.572861 226.994324,203.359009 228.106384,201.453751 
z"/>
<path fill="#090909" opacity="1.000000" stroke="none" 
	d="
M368.174072,198.148132 
	C368.174072,196.215317 368.174072,194.766602 368.174072,193.043930 
	C373.227051,193.043930 377.864655,192.659607 382.412720,193.133896 
	C389.259338,193.847885 393.530548,199.282043 393.375671,206.243088 
	C393.218781,213.297012 388.601807,218.282486 381.247498,218.857666 
	C377.134857,219.179276 372.976410,218.915497 368.174072,218.915497 
	C368.174072,212.095810 368.174072,205.364029 368.174072,198.148132 
M385.568176,207.087830 
	C385.156677,200.624756 383.238068,199.196014 376.150391,200.148407 
	C376.150391,204.072662 376.150391,208.004013 376.150391,212.078995 
	C380.089081,212.137955 383.859833,212.492737 385.568176,207.087830 
z"/>
<path fill="#0D0D0D" opacity="1.000000" stroke="none" 
	d="
M284.195190,194.330536 
	C286.549957,193.393372 288.877228,192.928467 291.797638,192.345078 
	C291.797638,195.900375 291.797638,198.801743 291.797638,201.887390 
	C294.718719,201.887390 297.121277,201.887390 299.868683,201.887390 
	C299.868683,198.931335 299.868683,196.163834 299.868683,193.122498 
	C302.440643,193.122498 304.681458,193.122498 307.230835,193.122498 
	C307.230835,201.556259 307.230835,209.971329 307.230835,218.702118 
	C305.008881,218.702118 302.771027,218.702118 300.060211,218.702118 
	C300.060211,215.781723 300.060211,212.700623 300.060211,209.373230 
	C297.206543,209.373230 294.810913,209.373230 292.088470,209.373230 
	C292.088470,212.414795 292.088470,215.354401 292.088470,218.653961 
	C289.408020,218.653961 287.033875,218.653961 284.167725,218.653961 
	C284.167725,210.702942 284.167725,202.752884 284.195190,194.330536 
z"/>
<path fill="#0A0A0A" opacity="1.000000" stroke="none" 
	d="
M341.171570,197.182373 
	C340.647430,193.673157 341.821533,192.469330 344.948425,192.804855 
	C347.244720,193.051270 349.589935,192.905060 351.911011,192.843506 
	C356.476624,192.722427 360.828674,193.458527 362.668427,198.215805 
	C364.425964,202.760513 363.627289,207.090088 359.300262,210.206863 
	C360.832733,213.142975 362.255035,215.867996 363.731934,218.697586 
	C358.435455,219.643799 354.130127,219.538010 352.590668,213.472580 
	C352.365082,212.583878 350.901611,212.009369 349.219482,210.649811 
	C349.017517,214.037109 348.885193,216.256393 348.737335,218.736389 
	C346.369171,218.736389 344.112427,218.736389 341.171539,218.736389 
	C341.171539,211.784210 341.171539,204.723587 341.171570,197.182373 
M349.527832,205.443085 
	C350.341339,205.466843 351.370117,205.817215 351.926361,205.450623 
	C353.362274,204.504303 354.589417,203.241180 355.899933,202.104599 
	C354.506470,201.062393 353.200806,199.853546 351.680267,199.052612 
	C350.984436,198.686081 349.865692,199.122406 348.949921,199.193741 
	C348.949921,201.275696 348.949921,203.045868 349.527832,205.443085 
z"/>
<path fill="#070707" opacity="1.000000" stroke="none" 
	d="
M333.149384,219.001221 
	C331.826019,218.752151 330.604401,218.791382 330.092590,218.207947 
	C326.468658,214.076721 322.785706,214.268280 318.703369,217.837677 
	C317.068176,219.267395 313.877380,218.917908 310.286530,219.583740 
	C313.796173,210.466064 316.766144,202.297577 320.216644,194.337402 
	C320.667542,193.297195 323.610046,192.905502 325.354919,193.001968 
	C326.621643,193.071976 328.471741,194.168793 328.937744,195.279388 
	C332.139587,202.910217 335.045166,210.665390 338.201385,218.779831 
	C336.410675,218.865646 334.995178,218.933487 333.149384,219.001221 
M322.861328,205.727997 
	C322.511658,207.005463 322.161987,208.282928 321.688568,210.012527 
	C323.907928,209.851044 325.407928,209.741898 327.280579,209.605637 
	C326.296875,206.881424 325.486328,204.636658 324.540375,202.016953 
	C323.908783,203.266983 323.473694,204.128159 322.861328,205.727997 
z"/>
<path fill="#EEEEEE" opacity="1.000000" stroke="none" 
	d="
M109.458099,201.441956 
	C110.792664,205.420410 111.958618,209.037216 113.369530,213.413895 
	C115.744118,207.084686 117.757195,201.501099 119.968407,195.997116 
	C120.448715,194.801559 121.639427,193.891388 122.502953,192.849777 
	C123.495644,193.951157 124.882179,194.890900 125.412102,196.182190 
	C127.579086,201.462631 129.484512,206.850403 131.778076,212.978317 
	C134.474457,205.784836 136.842407,199.390762 139.347336,193.050797 
	C139.453369,192.782425 140.831039,193.016479 142.105789,193.016479 
	C139.440277,201.155670 136.920975,208.980331 134.270294,216.760254 
	C133.969803,217.642242 132.645859,219.015228 132.287521,218.878036 
	C131.273560,218.489822 130.116837,217.596130 129.720795,216.616699 
	C127.369972,210.803070 125.218620,204.908768 122.624825,198.048706 
	C120.162506,204.680099 118.135666,210.367157 115.901047,215.971344 
	C115.432991,217.145187 114.199455,218.013779 113.318665,219.023026 
	C112.462982,218.020386 111.215096,217.152939 110.815361,215.993164 
	C108.237488,208.513748 105.844963,200.970459 103.180962,192.802185 
	C109.244408,193.278595 107.522835,198.436676 109.458099,201.441956 
z"/>
<path fill="#EEEEEE" opacity="1.000000" stroke="none" 
	d="
M148.199142,202.663940 
	C151.397141,194.213516 157.216293,190.916779 165.004898,192.791672 
	C171.882355,194.447266 175.853729,200.465729 174.962265,207.881775 
	C174.119171,214.895432 168.432236,219.625305 161.072937,219.433655 
	C153.908585,219.247086 148.623947,214.471405 148.030197,207.551651 
	C147.903061,206.069977 148.073624,204.562775 148.199142,202.663940 
M171.062241,202.578415 
	C169.473969,197.526627 165.812302,195.612518 160.776962,195.803452 
	C156.520889,195.964813 153.462143,197.969849 152.059280,202.007065 
	C150.510971,206.462814 151.158035,210.693024 154.860367,213.816360 
	C158.366653,216.774277 162.570526,216.992966 166.531464,214.841354 
	C171.062988,212.379791 172.219482,208.213379 171.062241,202.578415 
z"/>
<path fill="#EEEEEE" opacity="1.000000" stroke="none" 
	d="
M197.566559,216.551636 
	C194.855377,213.021393 193.614151,207.879959 187.091690,210.264267 
	C187.091690,212.197128 187.237869,214.469406 187.014832,216.704849 
	C186.933395,217.520966 185.974304,218.249512 185.415619,219.017990 
	C184.894043,218.210678 183.931503,217.409882 183.919464,216.595032 
	C183.804626,208.834183 183.850937,201.070969 183.850937,192.836990 
	C186.967316,192.836990 189.740829,192.899780 192.510468,192.822952 
	C197.218460,192.692352 201.248123,193.823776 202.550293,198.960297 
	C203.797699,203.880844 201.532013,207.279572 196.938461,209.432159 
	C198.959061,212.542297 200.921875,215.563522 202.884705,218.584747 
	C202.636490,218.916504 202.388290,219.248260 202.140091,219.580017 
	C200.690445,218.670288 199.240814,217.760544 197.566559,216.551636 
M198.978958,203.170319 
	C199.316849,196.432358 197.366058,195.273636 187.333542,196.389038 
	C187.333542,199.589706 187.333542,202.809708 187.333542,207.448502 
	C191.492310,206.163239 195.069382,205.057755 198.978958,203.170319 
z"/>
<path fill="#F5F5F5" opacity="1.000000" stroke="none" 
	d="
M227.975159,201.799438 
	C226.994324,203.359009 226.144699,204.572861 225.135986,206.014038 
	C227.390015,210.047867 229.721817,214.220840 232.053604,218.393799 
	C231.800278,218.738632 231.546951,219.083466 231.293625,219.428299 
	C229.961929,218.538544 228.356171,217.878876 227.367371,216.701233 
	C226.108688,215.202133 225.086670,213.377289 224.427689,211.527222 
	C222.892975,207.218597 220.046555,206.141632 215.538727,207.652634 
	C215.538727,211.088577 215.538727,214.679459 215.538727,218.270340 
	C215.063019,218.558838 214.587311,218.847351 214.111603,219.135849 
	C213.412918,218.266891 212.125656,217.409912 212.107681,216.527100 
	C211.948929,208.726288 212.015533,200.920883 212.015533,192.089569 
	C217.793762,195.252197 213.716187,200.200500 215.835541,203.514465 
	C222.309143,204.747055 223.560989,203.955154 226.191483,197.450485 
	C226.939316,195.601257 228.399841,194.040253 229.533524,192.347061 
	C230.094727,192.679153 230.655930,193.011230 231.217133,193.343323 
	C230.180222,196.046799 229.143295,198.750275 227.975159,201.799438 
z"/>
<path fill="#F9F9F9" opacity="1.000000" stroke="none" 
	d="
M385.447693,207.458527 
	C383.859833,212.492737 380.089081,212.137955 376.150391,212.078995 
	C376.150391,208.004013 376.150391,204.072662 376.150391,200.148407 
	C383.238068,199.196014 385.156677,200.624756 385.447693,207.458527 
z"/>
<path fill="#EEEEEE" opacity="1.000000" stroke="none" 
	d="
M349.238892,205.129578 
	C348.949921,203.045868 348.949921,201.275696 348.949921,199.193741 
	C349.865692,199.122406 350.984436,198.686081 351.680267,199.052612 
	C353.200806,199.853546 354.506470,201.062393 355.899933,202.104599 
	C354.589417,203.241180 353.362274,204.504303 351.926361,205.450623 
	C351.370117,205.817215 350.341339,205.466843 349.238892,205.129578 
z"/>
<path fill="#DBDBDB" opacity="1.000000" stroke="none" 
	d="
M322.949951,205.358658 
	C323.473694,204.128159 323.908783,203.266983 324.540375,202.016953 
	C325.486328,204.636658 326.296875,206.881424 327.280579,209.605637 
	C325.407928,209.741898 323.907928,209.851044 321.688568,210.012527 
	C322.161987,208.282928 322.511658,207.005463 322.949951,205.358658 
z"/>
<path fill="#070707" opacity="1.000000" stroke="none" 
	d="
M171.149353,202.954590 
	C172.219482,208.213379 171.062988,212.379791 166.531464,214.841354 
	C162.570526,216.992966 158.366653,216.774277 154.860367,213.816360 
	C151.158035,210.693024 150.510971,206.462814 152.059280,202.007065 
	C153.462143,197.969849 156.520889,195.964813 160.776962,195.803452 
	C165.812302,195.612518 169.473969,197.526627 171.149353,202.954590 
z"/>
<path fill="#030303" opacity="1.000000" stroke="none" 
	d="
M198.812714,203.561279 
	C195.069382,205.057755 191.492310,206.163239 187.333542,207.448502 
	C187.333542,202.809708 187.333542,199.589706 187.333542,196.389038 
	C197.366058,195.273636 199.316849,196.432358 198.812714,203.561279 
z"/>
</svg>